<?xml version="1.0" encoding="UTF-8" standalone="no"?><!-- Generator: Gravit.io --><svg xmlns="http://www.w3.org/2000/svg" xmlns:xlink="http://www.w3.org/1999/xlink" style="isolation:isolate" viewBox="0 0 15 9.3" width="15pt" height="9.3pt"><defs><clipPath id="_clipPath_dfAIbSCDWokitkf7nw3t1wP9HMZPOMWr"><rect width="15" height="9.3"/></clipPath></defs><g clip-path="url(#_clipPath_dfAIbSCDWokitkf7nw3t1wP9HMZPOMWr)"><rect width="15" height="9.3" style="fill:rgb(232,242,211)" fill-opacity="0"/><g><path d=" M 4.563 7.09 C 4.668 7.873 4.711 8.481 4.691 8.914 C 4.616 8.946 4.478 8.947 4.403 8.914 L 4.371 7.025" fill="rgb(53,89,86)"/><path d=" M 9.882 7.194 C 9.88 7.206 9.59 7.247 9.588 7.258 C 9.518 7.687 9.486 8.17 9.492 8.574 C 9.458 8.611 9.333 8.681 9.37 8.784 C 9.579 8.869 9.828 8.799 9.831 8.784" fill="rgb(53,89,86)"/><path d=" M 0.472 2.078 C 0.146 1.924 -0.011 1.643 0.001 1.233 C 0.011 0.881 0.218 0.628 0.472 0.398 C 1.056 -0.13 1.974 -0.135 2.516 0.398 C 3.106 0.978 2.929 1.646 3.156 2.787 C 3.453 4.001 3.949 5.284 4.053 5.21 C 6.254 2.554 9.044 3.857 10.122 5.708 C 10.261 5.89 11.967 7.683 12.852 8.205 C 13.641 8.75 14.369 9.072 15 9.349 C 12.447 9.074 10.786 7.331 10.391 7.246 C 10.43 7.726 10.45 8.13 10.45 8.458 C 10.45 8.785 10.43 9.036 10.391 9.211 C 10.054 9.285 9.741 9.233 9.558 9.184 C 9.489 9.125 9.567 8.909 9.767 8.816 C 9.742 8.425 9.595 7.711 9.654 7.246 C 8.52 7.677 5.471 7.442 4.417 7.09 C 4.473 7.996 4.442 8.69 4.386 9.213 C 4.096 9.275 3.719 9.274 3.454 9.211 C 3.398 9.08 3.474 8.949 3.636 8.816 C 3.556 7.677 3.596 6.948 3.668 6.65 C 2.139 5.015 2.21 3.058 2.034 1.587 Q 1.201 2.422 0.472 2.078 Z " fill="rgb(67,120,115)"/><path d=" M 9.678 9.191 C 9.679 9.182 9.679 9.172 9.679 9.162 C 9.679 9.085 9.665 9.023 9.647 9.023 C 9.629 9.023 9.615 9.085 9.615 9.162 C 9.615 9.172 9.615 9.182 9.616 9.191 L 9.678 9.191 L 9.678 9.191 Z " fill="rgb(89,89,89)"/><path d=" M 9.774 9.2 C 9.775 9.191 9.775 9.181 9.775 9.171 C 9.775 9.095 9.761 9.032 9.743 9.032 C 9.725 9.032 9.711 9.095 9.711 9.171 C 9.711 9.181 9.711 9.191 9.712 9.2 L 9.774 9.2 L 9.774 9.2 Z " fill="rgb(89,89,89)"/><path d=" M 9.87 9.213 C 9.871 9.203 9.871 9.194 9.871 9.184 C 9.871 9.107 9.857 9.045 9.839 9.045 C 9.821 9.045 9.807 9.107 9.807 9.184 C 9.807 9.194 9.807 9.203 9.808 9.213 L 9.87 9.213 L 9.87 9.213 Z " fill="rgb(89,89,89)"/><path d=" M 5.565 4.484 C 5.549 4.354 5.731 4.225 5.97 4.197 C 6.209 4.168 6.415 4.251 6.431 4.381 C 6.447 4.511 6.265 4.64 6.026 4.669 C 5.787 4.697 5.58 4.615 5.565 4.484 Z " fill="rgb(110,196,188)"/><path d=" M 6.19 3.938 C 6.181 3.86 6.244 3.788 6.33 3.778 C 6.417 3.767 6.495 3.822 6.504 3.9 C 6.514 3.978 6.451 4.05 6.364 4.06 C 6.277 4.071 6.199 4.016 6.19 3.938 Z " fill="rgb(110,196,188)"/><path d=" M 7.767 4.824 C 7.744 4.67 7.899 4.519 8.112 4.486 C 8.326 4.454 8.518 4.553 8.541 4.707 C 8.565 4.861 8.41 5.012 8.196 5.044 C 7.983 5.076 7.79 4.978 7.767 4.824 Z " fill="rgb(110,196,188)"/><path d=" M 10.192 8.58 C 10.182 8.514 10.208 8.456 10.25 8.449 C 10.292 8.443 10.334 8.491 10.344 8.557 C 10.354 8.622 10.328 8.681 10.286 8.687 C 10.244 8.693 10.202 8.645 10.192 8.58 Z " fill="rgb(110,196,188)"/><path d=" M 10.107 8.369 C 10.115 8.345 10.139 8.331 10.159 8.338 C 10.18 8.345 10.19 8.37 10.182 8.394 C 10.174 8.418 10.151 8.431 10.13 8.424 C 10.109 8.417 10.099 8.392 10.107 8.369 Z " fill="rgb(110,196,188)"/><path d=" M 6.655 4.078 C 6.639 3.948 6.764 3.825 6.934 3.805 C 7.103 3.785 7.254 3.874 7.269 4.005 C 7.285 4.135 7.16 4.257 6.99 4.278 C 6.82 4.298 6.67 4.208 6.655 4.078 Z " fill="rgb(110,196,188)"/><path d=" M 7.491 4.329 C 7.488 4.306 7.509 4.286 7.538 4.282 C 7.567 4.279 7.592 4.294 7.595 4.316 C 7.598 4.338 7.576 4.359 7.547 4.362 C 7.519 4.366 7.493 4.351 7.491 4.329 Z " fill="rgb(110,196,188)"/><path d=" M 6.724 4.397 C 6.707 4.382 6.712 4.35 6.734 4.325 C 6.757 4.301 6.788 4.293 6.804 4.307 C 6.821 4.322 6.816 4.354 6.794 4.379 C 6.771 4.403 6.74 4.411 6.724 4.397 Z " fill="rgb(110,196,188)"/><path d=" M 6.365 4.671 C 6.383 4.621 6.458 4.604 6.533 4.631 C 6.607 4.659 6.652 4.721 6.634 4.771 C 6.616 4.82 6.54 4.838 6.466 4.81 C 6.392 4.783 6.346 4.72 6.365 4.671 Z " fill="rgb(110,196,188)"/><path d=" M 1.958 0.246 C 1.963 0.205 2.016 0.179 2.076 0.186 C 2.136 0.194 2.181 0.232 2.176 0.272 C 2.172 0.312 2.119 0.339 2.058 0.332 C 1.998 0.324 1.953 0.286 1.958 0.246 Z " fill="rgb(110,196,188)"/><path d=" M 2.265 3.378 C 2.294 3.341 2.356 3.341 2.404 3.378 C 2.452 3.416 2.468 3.476 2.438 3.514 C 2.409 3.551 2.347 3.551 2.299 3.513 C 2.251 3.476 2.236 3.415 2.265 3.378 Z " fill="rgb(110,196,188)"/><path d=" M 2.374 3.716 C 2.424 3.652 2.523 3.645 2.595 3.701 C 2.666 3.757 2.684 3.855 2.634 3.919 C 2.583 3.983 2.484 3.99 2.413 3.934 C 2.341 3.878 2.324 3.78 2.374 3.716 Z " fill="rgb(110,196,188)"/><path d=" M 2.558 3.618 C 2.568 3.6 2.592 3.595 2.612 3.606 C 2.631 3.618 2.639 3.641 2.629 3.659 C 2.619 3.676 2.595 3.681 2.575 3.67 C 2.556 3.659 2.548 3.635 2.558 3.618 Z " fill="rgb(110,196,188)"/><path d=" M 2.107 0.4 C 2.109 0.384 2.131 0.373 2.155 0.376 C 2.179 0.379 2.197 0.394 2.195 0.41 C 2.193 0.426 2.172 0.437 2.148 0.434 C 2.123 0.431 2.105 0.416 2.107 0.4 Z " fill="rgb(110,196,188)"/><path d=" M 2.206 0.327 C 2.208 0.303 2.229 0.287 2.253 0.292 C 2.278 0.296 2.296 0.319 2.294 0.343 C 2.292 0.367 2.27 0.382 2.246 0.378 C 2.222 0.374 2.204 0.351 2.206 0.327 Z " fill="rgb(110,196,188)"/><path d=" M 7.339 3.743 Q 7.923 4.56 8.618 4.196 Q 7.883 3.797 7.339 3.743 Z " fill="rgb(110,196,188)"/><path d=" M 3.596 9.213 C 3.597 9.203 3.597 9.194 3.597 9.184 C 3.597 9.107 3.583 9.045 3.565 9.045 C 3.547 9.045 3.533 9.107 3.533 9.184 C 3.533 9.194 3.533 9.203 3.534 9.213 L 3.596 9.213 L 3.596 9.213 Z " fill="rgb(89,89,89)"/><path d=" M 3.692 9.222 C 3.693 9.213 3.693 9.203 3.693 9.193 C 3.693 9.116 3.679 9.054 3.661 9.054 C 3.644 9.054 3.629 9.116 3.629 9.193 C 3.629 9.203 3.629 9.213 3.63 9.222 L 3.692 9.222 L 3.692 9.222 Z " fill="rgb(89,89,89)"/><path d=" M 3.788 9.234 C 3.789 9.225 3.789 9.215 3.789 9.205 C 3.789 9.129 3.775 9.066 3.757 9.066 C 3.74 9.066 3.725 9.129 3.725 9.205 C 3.725 9.215 3.725 9.225 3.726 9.234 L 3.788 9.234 L 3.788 9.234 Z " fill="rgb(89,89,89)"/><path d=" M 7.056 4.629 C 7.026 4.728 6.837 4.74 6.877 4.854 C 6.903 4.93 6.987 4.937 7.056 4.966 C 7.172 5.015 7.291 5.082 7.405 5.011 C 7.573 4.907 7.517 4.679 7.405 4.539 C 7.318 4.432 7.16 4.259 7.056 4.404 C 7.007 4.473 7.08 4.552 7.056 4.629 Z " fill="rgb(110,196,188)"/></g></g></svg>